<?xml version="1.0" standalone="no"?>
<!DOCTYPE svg PUBLIC "-//W3C//DTD SVG 20010904//EN"
 "http://www.w3.org/TR/2001/REC-SVG-20010904/DTD/svg10.dtd">
<svg version="1.0" xmlns="http://www.w3.org/2000/svg"
 width="1600.000000pt" height="1600.000000pt" viewBox="0 0 1600.000000 1600.000000"
 preserveAspectRatio="xMidYMid meet">
<metadata>
Created by potrace 1.11, written by Peter Selinger 2001-2013
</metadata>
<g transform="translate(0.000000,1600.000000) scale(0.100000,-0.100000)"
fill="#000000" stroke="none">
<path d="M7635 13989 c-1710 -98 -3308 -890 -4430 -2196 -786 -915 -1293
-2024 -1469 -3218 -53 -363 -61 -479 -61 -940 1 -474 14 -653 76 -1027 195
-1189 704 -2265 1499 -3173 616 -703 1421 -1288 2270 -1648 138 -58 553 -218
555 -214 1 1 140 371 310 822 169 451 510 1358 757 2015 247 657 456 1211 463
1232 l13 36 -206 77 c-375 140 -574 259 -801 479 -179 175 -298 339 -407 561
-556 1132 73 2490 1302 2809 167 44 293 59 494 59 200 0 322 -15 492 -58 702
-180 1254 -724 1437 -1417 126 -472 81 -950 -129 -1386 -99 -205 -203 -353
-365 -521 -237 -245 -453 -379 -847 -526 l-206 -77 25 -66 c126 -335 939
-2498 1193 -3177 178 -473 324 -861 325 -862 2 -4 414 155 555 214 182 77 514
243 685 344 1684 984 2814 2653 3099 4574 51 347 61 490 61 935 0 445 -9 584
-61 935 -266 1800 -1281 3390 -2804 4391 -1129 742 -2468 1101 -3825 1023z"/>
</g>
</svg>
